# xmcd
#
# Track frame offsets:
# 150
# 15375
# 30175
# 51982
# 69740
# 84750
# 97920
# 113225
# 129362
# 144327
#
# Disc length: 2179 seconds
#
#
# Revision: 0
# Processed by: cddbd v1.5.1PL2 Copyright (c) Steve Scherf et al.
# Submitted via: FreeRIP 2.30 
#
DISCID=7008810a
DTITLE=Bill Hanff - In The Zone
DYEAR=1996
DGENRE=Country
TTITLE0=Miss Goody Two Shoes
TTITLE1=I Wanna Love Somebody Like You
TTITLE2=Somewhere Down The Line
TTITLE3=Old Fires Still Burn
TTITLE4=Comfort Zone
TTITLE5=Don't You Ever Say Never To Love
TTITLE6=Closer To Crazy
TTITLE7=Honky Tonk Mood
TTITLE8=There's No Future In The Past
TTITLE9=Daddy's Little Girl
EXTD=
EXTT0=
EXTT1=
EXTT2=
EXTT3=
EXTT4=
EXTT5=
EXTT6=
EXTT7=
EXTT8=
EXTT9=
PLAYORDER=
